<svg version="1.1" id="Layer_1" xmlns="http://www.w3.org/2000/svg" xmlns:xlink="http://www.w3.org/1999/xlink" x="0px" y="0px"
	 width="100%" viewBox="0 0 1813 1300" enable-background="new 0 0 1813 1300" xml:space="preserve">
<path fill="#FFFFFF" opacity="1.000000" stroke="none" 
	d="
M1078.000000,1301.000000 
	C718.666748,1301.000000 359.833557,1301.000000 1.000241,1301.000000 
	C1.000160,867.666931 1.000160,434.333801 1.000080,1.000531 
	C605.332947,1.000354 1209.665894,1.000354 1813.999023,1.000177 
	C1813.999390,434.332794 1813.999390,867.665588 1813.999756,1300.999268 
	C1568.833374,1301.000000 1323.666626,1301.000000 1078.000000,1301.000000 
M441.831940,345.273376 
	C442.099609,345.131775 442.330078,344.944427 443.181793,344.465210 
	C469.243500,329.700989 494.843231,314.039001 521.454895,300.343445 
	C596.501709,261.721069 675.425659,233.290680 757.383362,213.254654 
	C837.444885,193.682175 918.648865,183.184937 1001.118713,183.235641 
	C1016.255981,183.244949 1031.404541,184.049622 1046.527100,184.871643 
	C1078.310425,186.599304 1109.850952,190.414963 1141.079956,196.655090 
	C1148.610107,198.159760 1156.133301,199.699081 1163.659546,201.222473 
	C1163.910889,200.797485 1164.162109,200.372498 1164.413452,199.947510 
	C1163.139771,198.956009 1161.809937,198.028351 1160.600952,196.963455 
	C1141.516113,180.153885 1120.705933,165.828323 1098.306763,153.816986 
	C1045.420654,125.457291 988.649109,111.405624 928.989319,108.443504 
	C871.408325,105.584595 815.062256,113.437164 759.707581,129.061035 
	C700.627380,145.736420 645.004822,169.523651 595.293579,206.412308 
	C542.689392,245.447708 494.423767,289.243958 448.745544,336.033997 
	C446.321991,338.516541 444.097137,341.193024 441.306519,343.963684 
	C441.140625,344.247864 440.974701,344.532074 440.287384,345.051849 
	C440.284088,345.300659 440.280762,345.549438 440.277435,345.798248 
	C440.651550,345.665894 441.025665,345.533539 441.831940,345.273376 
M528.981934,848.439270 
	C530.994629,844.606750 532.953430,840.744812 535.029053,836.946716 
	C545.818909,817.202942 556.683838,797.495056 572.146118,780.854492 
	C579.120422,773.348633 586.942017,766.869263 596.661194,763.219238 
	C598.823792,762.407104 601.579712,762.239563 603.834229,762.761353 
	C617.288025,765.875000 630.710205,769.141907 644.078247,772.606934 
	C701.418335,787.469604 758.448975,803.645264 816.949890,813.589844 
	C865.753296,821.885986 914.747864,825.897400 964.109314,819.038940 
	C1008.273865,812.902466 1048.825195,797.645935 1084.711060,770.763916 
	C1106.172852,754.687012 1124.401123,735.241211 1142.172485,715.362488 
	C1180.853882,672.094177 1213.062866,624.586731 1235.585083,570.870605 
	C1260.333862,511.844208 1271.226929,450.605469 1262.694336,386.796356 
	C1253.488647,317.953125 1223.755493,259.004700 1174.464111,210.024429 
	C1172.593384,208.165558 1169.853271,206.740021 1167.273560,206.101395 
	C1120.380249,194.492462 1072.650513,188.943588 1024.462402,187.247055 
	C981.961792,185.750732 939.545837,187.671753 897.274292,192.226395 
	C853.046875,196.991760 809.288086,204.570999 766.005066,214.887833 
	C655.235229,241.290710 550.672791,282.879608 453.421051,342.416962 
	C437.630219,352.084106 422.896973,362.624146 410.318512,376.730255 
	C346.296051,448.528290 287.751312,524.338257 238.551804,607.135132 
	C210.603943,654.167908 186.080688,702.861877 168.520889,754.830261 
	C167.584244,757.602234 167.100128,760.652832 167.060257,763.582581 
	C166.682739,791.324402 169.561874,818.767578 175.030548,845.947510 
	C188.992737,915.341187 219.816620,975.820618 269.900970,1026.266968 
	C275.494995,1031.901367 281.714966,1034.869629 289.184418,1036.689941 
	C338.192505,1048.633545 383.037231,1041.205444 422.541382,1008.498779 
	C446.463715,988.692627 465.160034,964.385498 480.519684,937.724243 
	C497.295166,908.605347 512.664978,878.676758 528.981934,848.439270 
M691.279114,1157.570435 
	C724.926636,1154.584351 758.727173,1152.762939 792.189697,1148.368164 
	C860.692749,1139.371460 927.483215,1122.656250 992.746277,1099.959229 
	C1076.787109,1070.731812 1156.112793,1032.076172 1229.108032,980.935547 
	C1284.398804,942.198730 1334.121216,897.444641 1375.631104,843.941833 
	C1376.842896,842.380127 1378.530762,840.739258 1378.789429,838.959839 
	C1380.385742,827.977661 1382.657104,816.955383 1382.769165,805.926819 
	C1382.953857,787.755249 1382.045166,769.543823 1380.846436,751.398804 
	C1380.216553,741.864258 1378.443237,732.336365 1376.391235,722.979797 
	C1372.789673,706.557190 1367.910156,690.544373 1361.165161,675.024841 
	C1350.616699,650.754395 1336.810181,628.678284 1318.733643,609.435913 
	C1310.725586,600.911560 1301.808594,593.195435 1292.934204,585.541382 
	C1278.755249,573.312256 1262.896240,563.566833 1245.982056,554.912109 
	C1245.292725,556.485291 1244.650024,557.796753 1244.132935,559.155945 
	C1231.714966,591.799377 1215.446655,622.439087 1196.203491,651.545654 
	C1173.332886,686.139038 1146.621216,717.554016 1117.436890,746.925964 
	C1097.938599,766.549438 1076.197632,783.153992 1051.495972,795.769226 
	C1001.710205,821.195068 948.342957,827.988098 893.376648,825.679016 
	C844.787476,823.637695 797.142700,814.913208 750.037170,803.314880 
	C703.027832,791.740173 656.132568,779.689514 609.309875,767.381287 
	C601.545593,765.340271 595.333496,766.557922 589.241150,770.952698 
	C586.141235,773.188904 582.679871,775.193420 580.253174,778.044312 
	C572.184387,787.523499 563.347046,796.631104 556.933044,807.175903 
	C544.500916,827.614685 533.172852,848.753052 522.011841,869.930664 
	C504.091705,903.933411 486.865997,938.309875 463.907349,969.365784 
	C463.040588,970.538391 462.727936,972.639221 463.062836,974.099731 
	C465.843018,986.224426 468.393646,998.429321 471.870026,1010.360413 
	C477.005676,1027.986328 484.818817,1044.575562 494.164246,1060.322632 
	C504.029053,1076.944824 515.780823,1092.196289 529.418945,1106.012451 
	C545.963867,1122.773438 564.665649,1136.681641 584.693359,1148.876465 
	C589.344360,1151.708374 594.458557,1155.527954 599.479614,1155.717651 
	C629.740356,1156.861084 660.036011,1157.080444 691.279114,1157.570435 
M1108.585938,1134.061035 
	C1120.934326,1127.967407 1133.381470,1122.064331 1145.610352,1115.739502 
	C1169.703491,1103.278442 1192.538452,1088.789551 1214.707153,1073.141968 
	C1236.306396,1057.896362 1256.437378,1040.936646 1275.545898,1022.768860 
	C1284.146851,1014.591370 1292.085083,1005.654053 1299.765625,996.588379 
	C1308.512451,986.263977 1317.018677,975.688354 1324.946777,964.728149 
	C1339.039307,945.246277 1350.596069,924.285278 1360.036133,902.132568 
	C1367.287598,885.116089 1372.696045,867.573547 1377.036499,848.394714 
	C1375.591919,850.021423 1374.913696,850.717407 1374.310791,851.473511 
	C1329.123169,908.135559 1275.071655,954.990967 1214.915283,994.988586 
	C1129.405640,1051.843506 1036.509521,1092.588867 938.038696,1120.989990 
	C874.377380,1139.351074 809.550964,1151.718384 743.561707,1157.729126 
	C707.233215,1161.038208 670.821228,1162.535278 634.324524,1161.224487 
	C625.710876,1160.915039 617.076660,1161.178589 607.938660,1161.178589 
	C612.587769,1163.217041 616.889587,1165.423584 621.405701,1167.026733 
	C638.582581,1173.124023 655.628967,1179.708252 673.099976,1184.827759 
	C694.471191,1191.090088 716.403503,1195.040283 738.641174,1197.045410 
	C752.349060,1198.281494 766.038574,1200.723877 779.743408,1200.776855 
	C806.090759,1200.878784 832.450562,1199.867432 858.789795,1198.899414 
	C868.752808,1198.533203 878.719910,1197.339355 888.602661,1195.940063 
	C905.510986,1193.546021 922.381348,1190.851807 939.219177,1187.997559 
	C968.779968,1182.986694 997.612732,1175.016602 1026.169067,1166.010986 
	C1054.082642,1157.208008 1081.268311,1146.493530 1108.585938,1134.061035 
M216.861313,964.602722 
	C181.173203,905.584900 165.284698,841.031006 163.391266,772.276428 
	C162.891586,773.019592 162.490738,773.391235 162.360687,773.841125 
	C150.531387,814.763855 143.023026,856.188232 149.131668,898.963318 
	C154.694870,937.919128 171.715820,970.704102 202.597382,995.752380 
	C221.188232,1010.831604 242.350891,1021.131470 264.732635,1029.157227 
	C265.663361,1029.490967 266.667450,1029.619995 268.879883,1030.131958 
	C248.532135,1009.875732 231.551605,988.598511 216.861313,964.602722 
M1165.361450,201.539337 
	C1165.361450,201.539337 1165.278564,201.467590 1165.361450,201.539337 
z"/>
<path fill="#FDB616" opacity="1.000000" stroke="none" 
	d="
M528.814697,848.770142 
	C512.664978,878.676758 497.295166,908.605347 480.519684,937.724243 
	C465.160034,964.385498 446.463715,988.692627 422.541382,1008.498779 
	C383.037231,1041.205444 338.192505,1048.633545 289.184418,1036.689941 
	C281.714966,1034.869629 275.494995,1031.901367 269.900970,1026.266968 
	C219.816620,975.820618 188.992737,915.341187 175.030548,845.947510 
	C169.561874,818.767578 166.682739,791.324402 167.060257,763.582581 
	C167.100128,760.652832 167.584244,757.602234 168.520889,754.830261 
	C186.080688,702.861877 210.603943,654.167908 238.551804,607.135132 
	C287.751312,524.338257 346.296051,448.528290 410.318512,376.730255 
	C422.896973,362.624146 437.630219,352.084106 453.421051,342.416962 
	C550.672791,282.879608 655.235229,241.290710 766.005066,214.887833 
	C809.288086,204.570999 853.046875,196.991760 897.274292,192.226395 
	C939.545837,187.671753 981.961792,185.750732 1024.462402,187.247055 
	C1072.650513,188.943588 1120.380249,194.492462 1167.273560,206.101395 
	C1169.853271,206.740021 1172.593384,208.165558 1174.464111,210.024429 
	C1223.755493,259.004700 1253.488647,317.953125 1262.694336,386.796356 
	C1271.226929,450.605469 1260.333862,511.844208 1235.585083,570.870605 
	C1213.062866,624.586731 1180.853882,672.094177 1142.172485,715.362488 
	C1124.401123,735.241211 1106.172852,754.687012 1084.711060,770.763916 
	C1048.825195,797.645935 1008.273865,812.902466 964.109314,819.038940 
	C914.747864,825.897400 865.753296,821.885986 816.949890,813.589844 
	C758.448975,803.645264 701.418335,787.469604 644.078247,772.606934 
	C630.710205,769.141907 617.288025,765.875000 603.834229,762.761353 
	C601.579712,762.239563 598.823792,762.407104 596.661194,763.219238 
	C586.942017,766.869263 579.120422,773.348633 572.146118,780.854492 
	C556.683838,797.495056 545.818909,817.202942 535.029053,836.946716 
	C532.953430,840.744812 530.994629,844.606750 528.814697,848.770142 
z"/>
<path fill="#067C51" opacity="1.000000" stroke="none" 
	d="
M690.799561,1157.589844 
	C660.036011,1157.080444 629.740356,1156.861084 599.479614,1155.717651 
	C594.458557,1155.527954 589.344360,1151.708374 584.693359,1148.876465 
	C564.665649,1136.681641 545.963867,1122.773438 529.418945,1106.012451 
	C515.780823,1092.196289 504.029053,1076.944824 494.164246,1060.322632 
	C484.818817,1044.575562 477.005676,1027.986328 471.870026,1010.360413 
	C468.393646,998.429321 465.843018,986.224426 463.062836,974.099731 
	C462.727936,972.639221 463.040588,970.538391 463.907349,969.365784 
	C486.865997,938.309875 504.091705,903.933411 522.011841,869.930664 
	C533.172852,848.753052 544.500916,827.614685 556.933044,807.175903 
	C563.347046,796.631104 572.184387,787.523499 580.253174,778.044312 
	C582.679871,775.193420 586.141235,773.188904 589.241150,770.952698 
	C595.333496,766.557922 601.545593,765.340271 609.309875,767.381287 
	C656.132568,779.689514 703.027832,791.740173 750.037170,803.314880 
	C797.142700,814.913208 844.787476,823.637695 893.376648,825.679016 
	C948.342957,827.988098 1001.710205,821.195068 1051.495972,795.769226 
	C1076.197632,783.153992 1097.938599,766.549438 1117.436890,746.925964 
	C1146.621216,717.554016 1173.332886,686.139038 1196.203491,651.545654 
	C1215.446655,622.439087 1231.714966,591.799377 1244.132935,559.155945 
	C1244.650024,557.796753 1245.292725,556.485291 1245.982056,554.912109 
	C1262.896240,563.566833 1278.755249,573.312256 1292.934204,585.541382 
	C1301.808594,593.195435 1310.725586,600.911560 1318.733643,609.435913 
	C1336.810181,628.678284 1350.616699,650.754395 1361.165161,675.024841 
	C1367.910156,690.544373 1372.789673,706.557190 1376.391235,722.979797 
	C1378.443237,732.336365 1380.216553,741.864258 1380.846436,751.398804 
	C1382.045166,769.543823 1382.953857,787.755249 1382.769165,805.926819 
	C1382.657104,816.955383 1380.385742,827.977661 1378.789429,838.959839 
	C1378.530762,840.739258 1376.842896,842.380127 1375.631104,843.941833 
	C1334.121216,897.444641 1284.398804,942.198730 1229.108032,980.935547 
	C1156.112793,1032.076172 1076.787109,1070.731812 992.746277,1099.959229 
	C927.483215,1122.656250 860.692749,1139.371460 792.189697,1148.368164 
	C758.727173,1152.762939 724.926636,1154.584351 690.799561,1157.589844 
z"/>
<path fill="#077C51" opacity="1.000000" stroke="none" 
	d="
M1108.278809,1134.298096 
	C1081.268311,1146.493530 1054.082642,1157.208008 1026.169067,1166.010986 
	C997.612732,1175.016602 968.779968,1182.986694 939.219177,1187.997559 
	C922.381348,1190.851807 905.510986,1193.546021 888.602661,1195.940063 
	C878.719910,1197.339355 868.752808,1198.533203 858.789795,1198.899414 
	C832.450562,1199.867432 806.090759,1200.878784 779.743408,1200.776855 
	C766.038574,1200.723877 752.349060,1198.281494 738.641174,1197.045410 
	C716.403503,1195.040283 694.471191,1191.090088 673.099976,1184.827759 
	C655.628967,1179.708252 638.582581,1173.124023 621.405701,1167.026733 
	C616.889587,1165.423584 612.587769,1163.217041 607.938660,1161.178589 
	C617.076660,1161.178589 625.710876,1160.915039 634.324524,1161.224487 
	C670.821228,1162.535278 707.233215,1161.038208 743.561707,1157.729126 
	C809.550964,1151.718384 874.377380,1139.351074 938.038696,1120.989990 
	C1036.509521,1092.588867 1129.405640,1051.843506 1214.915283,994.988586 
	C1275.071655,954.990967 1329.123169,908.135559 1374.310791,851.473511 
	C1374.913696,850.717407 1375.591919,850.021423 1377.036499,848.394714 
	C1372.696045,867.573547 1367.287598,885.116089 1360.036133,902.132568 
	C1350.596069,924.285278 1339.039307,945.246277 1324.946777,964.728149 
	C1317.018677,975.688354 1308.512451,986.263977 1299.765625,996.588379 
	C1292.085083,1005.654053 1284.146851,1014.591370 1275.545898,1022.768860 
	C1256.437378,1040.936646 1236.306396,1057.896362 1214.707153,1073.141968 
	C1192.538452,1088.789551 1169.703491,1103.278442 1145.610352,1115.739502 
	C1133.381470,1122.064331 1120.934326,1127.967407 1108.278809,1134.298096 
z"/>
<path fill="#FDB617" opacity="1.000000" stroke="none" 
	d="
M441.779755,343.779205 
	C444.097137,341.193024 446.321991,338.516541 448.745544,336.033997 
	C494.423767,289.243958 542.689392,245.447708 595.293579,206.412308 
	C645.004822,169.523651 700.627380,145.736420 759.707581,129.061035 
	C815.062256,113.437164 871.408325,105.584595 928.989319,108.443504 
	C988.649109,111.405624 1045.420654,125.457291 1098.306763,153.816986 
	C1120.705933,165.828323 1141.516113,180.153885 1160.600952,196.963455 
	C1161.809937,198.028351 1163.139771,198.956009 1164.413452,199.947510 
	C1164.162109,200.372498 1163.910889,200.797485 1163.659546,201.222473 
	C1156.133301,199.699081 1148.610107,198.159760 1141.079956,196.655090 
	C1109.850952,190.414963 1078.310425,186.599304 1046.527100,184.871643 
	C1031.404541,184.049622 1016.255981,183.244949 1001.118713,183.235641 
	C918.648865,183.184937 837.444885,193.682175 757.383362,213.254654 
	C675.425659,233.290680 596.501709,261.721069 521.454895,300.343445 
	C494.843231,314.039001 469.243500,329.700989 442.680695,344.342224 
	C442.046326,344.072540 441.913025,343.925873 441.779755,343.779205 
z"/>
<path fill="#FDB718" opacity="1.000000" stroke="none" 
	d="
M217.052780,964.911133 
	C231.551605,988.598511 248.532135,1009.875732 268.879883,1030.131958 
	C266.667450,1029.619995 265.663361,1029.490967 264.732635,1029.157227 
	C242.350891,1021.131470 221.188232,1010.831604 202.597382,995.752380 
	C171.715820,970.704102 154.694870,937.919128 149.131668,898.963318 
	C143.023026,856.188232 150.531387,814.763855 162.360687,773.841125 
	C162.490738,773.391235 162.891586,773.019592 163.391266,772.276428 
	C165.284698,841.031006 181.173203,905.584900 217.052780,964.911133 
z"/>
<path fill="#FDB617" opacity="1.000000" stroke="none" 
	d="
M1165.320068,201.503464 
	C1165.278564,201.467590 1165.361450,201.539337 1165.320068,201.503464 
z"/>
<path fill="#FDB617" opacity="1.000000" stroke="none" 
	d="
M440.808777,344.816284 
	C440.974701,344.532074 441.140625,344.247864 441.543152,343.871460 
	C441.913025,343.925873 442.046326,344.072540 442.351471,344.465271 
	C442.330078,344.944427 442.099609,345.131775 441.469025,345.190125 
	C441.106110,345.106842 440.808777,344.816254 440.808777,344.816284 
z"/>
<path fill="#FDB617" opacity="1.000000" stroke="none" 
	d="
M441.252930,345.254028 
	C441.025665,345.533539 440.651550,345.665894 440.277466,345.798248 
	C440.280762,345.549438 440.284088,345.300659 440.548096,344.934052 
	C440.808777,344.816254 441.106110,345.106842 441.252930,345.254028 
z"/>
</svg>